<?xml version="1.0" encoding="utf-8"?>
<!-- Generator: Adobe Illustrator 19.0.0, SVG Export Plug-In . SVG Version: 6.00 Build 0)  -->
<svg version="1.1" xmlns="http://www.w3.org/2000/svg" xmlns:xlink="http://www.w3.org/1999/xlink" x="0px" y="0px"
	 viewBox="0 0 234.7 171.7" style="enable-background:new 0 0 234.7 171.7;" xml:space="preserve">
<style type="text/css">
	.st0{display:none;}
	.st1{display:inline;}
	.st2{opacity:0.35;fill:#FF3A55;}
	.st3{fill:#FFFFFF;}
	.st4{fill:#232323;}
	.st5{fill:#969696;}
	.st6{fill:#65617D;}
	.st7{fill:#515151;}
	.st8{fill:#353535;}
	.st9{fill:#908F92;}
	.st10{fill:#97E3F7;}
	.st11{fill:#FF791F;}
	.st12{fill:#D2CE07;}
	.st13{fill:#D4DFEC;}
	.st14{fill:#A4BFD8;}
	.st15{fill:#FF3A55;}
	.st16{fill:#FBBEBE;}
	.st17{fill:#383838;}
	.st18{fill:#F49D56;}
	.st19{fill:#3F3D56;}
	.st20{fill:#F9B078;}
	.st21{fill:#686868;}
	.st22{fill:#FC4F6D;}
	.st23{fill:#F9F969;}
	.st24{fill:#444444;}
	.st25{fill:#939393;}
</style>
<g id="Layer_1" class="st0">
	<g id="XMLID_142_" class="st1">
		<path id="XMLID_29_" class="st2" d="M23.8,70.4c0,0-48.7,65.1,7.8,80.5s80.1-9.5,98.7-14.6c34.8-9.4,52.9,10.7,83.8-15.2
			s7.3-62,7.3-62s-6-26.2-70.4-40.5c-39.6-8.8-56.5,1.2-63.4,13.5C80,45.5,66,54,50.7,55.8C40.5,57.1,30.2,61,23.8,70.4z"/>
		<path id="XMLID_27_" class="st3" d="M162.3,132"/>
		<g id="XMLID_30_">
			<g id="XMLID_28_">
				<rect id="XMLID_133_" x="103.8" y="18.1" class="st4" width="32.1" height="33.3"/>
				<g id="XMLID_126_">
					<path id="XMLID_132_" class="st5" d="M119.9,4.4v18.8h-17.3c-3,0-5.4-2.4-5.4-5.4v-8c0-3,2.4-5.4,5.4-5.4H119.9z"/>
					<path id="XMLID_131_" class="st5" d="M119.9,25.3v18.8h-17.3c-3,0-5.4-2.4-5.4-5.4v-8c0-3,2.4-5.4,5.4-5.4H119.9z"/>
					<path id="XMLID_130_" class="st5" d="M119.9,46.2V65h-17.3c-3,0-5.4-2.4-5.4-5.4v-8c0-3,2.4-5.4,5.4-5.4H119.9z"/>
					<path id="XMLID_129_" class="st6" d="M142.6,9.8v8c0,3-2.4,5.4-5.4,5.4h-17.3V4.4h17.3C140.2,4.4,142.6,6.8,142.6,9.8z"/>
					<path id="XMLID_128_" class="st6" d="M142.6,30.7v8c0,3-2.4,5.4-5.4,5.4h-17.3V25.3h17.3C140.2,25.3,142.6,27.7,142.6,30.7z"/>
					<path id="XMLID_127_" class="st6" d="M142.6,51.6v8c0,3-2.4,5.4-5.4,5.4h-17.3V46.2h17.3C140.2,46.2,142.6,48.6,142.6,51.6z"/>
				</g>
			</g>
			<g id="XMLID_107_">
				<g id="XMLID_108_">
					<rect id="XMLID_116_" x="168.8" y="52.2" class="st4" width="32.1" height="33.3"/>
					<g id="XMLID_109_">
						<path id="XMLID_115_" class="st5" d="M184.8,38.6v18.8h-17.3c-3,0-5.4-2.4-5.4-5.4v-8c0-3,2.4-5.4,5.4-5.4H184.8z"/>
						<path id="XMLID_114_" class="st5" d="M184.8,59.5v18.8h-17.3c-3,0-5.4-2.4-5.4-5.4v-8c0-3,2.4-5.4,5.4-5.4H184.8z"/>
						<path id="XMLID_113_" class="st5" d="M184.8,80.4v18.8h-17.3c-3,0-5.4-2.4-5.4-5.4v-8c0-3,2.4-5.4,5.4-5.4H184.8z"/>
						<path id="XMLID_112_" class="st6" d="M207.6,44v8c0,3-2.4,5.4-5.4,5.4h-17.3V38.6h17.3C205.1,38.6,207.6,41,207.6,44z"/>
						<path id="XMLID_111_" class="st6" d="M207.6,64.9v8c0,3-2.4,5.4-5.4,5.4h-17.3V59.5h17.3C205.1,59.5,207.6,61.9,207.6,64.9z"
							/>
						<path id="XMLID_110_" class="st6" d="M207.6,85.8v8c0,3-2.4,5.4-5.4,5.4h-17.3V80.4h17.3C205.1,80.4,207.6,82.8,207.6,85.8z"
							/>
					</g>
				</g>
				<g id="XMLID_117_">
					<rect id="XMLID_125_" x="41.6" y="42.8" class="st4" width="32.1" height="33.3"/>
					<g id="XMLID_118_">
						<path id="XMLID_124_" class="st5" d="M57.6,29.2V48H40.3c-3,0-5.4-2.4-5.4-5.4v-8c0-3,2.4-5.4,5.4-5.4H57.6z"/>
						<path id="XMLID_123_" class="st5" d="M57.6,50.1v18.8H40.3c-3,0-5.4-2.4-5.4-5.4v-8c0-3,2.4-5.4,5.4-5.4H57.6z"/>
						<path id="XMLID_122_" class="st5" d="M57.6,71v18.8H40.3c-3,0-5.4-2.4-5.4-5.4v-8c0-3,2.4-5.4,5.4-5.4H57.6z"/>
						<path id="XMLID_121_" class="st6" d="M80.4,34.6v8c0,3-2.4,5.4-5.4,5.4H57.6V29.2h17.3C77.9,29.2,80.4,31.6,80.4,34.6z"/>
						<path id="XMLID_120_" class="st6" d="M80.4,55.5v8c0,3-2.4,5.4-5.4,5.4H57.6V50.1h17.3C77.9,50.1,80.4,52.5,80.4,55.5z"/>
						<path id="XMLID_119_" class="st6" d="M80.4,76.4v8c0,3-2.4,5.4-5.4,5.4H57.6V71h17.3C77.9,71,80.4,73.4,80.4,76.4z"/>
					</g>
				</g>
			</g>
			<g id="XMLID_85_">
				<g id="XMLID_98_">
					<path id="XMLID_106_" class="st7" d="M150.9,166.2c-0.1,2.2-1.9,3.9-4.1,3.9H94.1c-2.2,0-4-1.7-4.1-3.9H150.9z"/>
					<g id="XMLID_100_">
						<path id="XMLID_105_" class="st4" d="M148,127.1v29.4c0,0.7-0.5,1.2-1.2,1.2H94.1c-0.7,0-1.2-0.5-1.2-1.2v-29.4
							c0-0.6,0.5-1.2,1.2-1.2h52.6C147.4,125.9,148,126.4,148,127.1z"/>
						<path id="XMLID_102_" class="st7" d="M146.8,122.9H94.1c-2.3,0-4.1,1.9-4.1,4.1v31.9c0,2.3,1.9,4.1,4.1,4.1h52.6
							c2.3,0,4.1-1.9,4.1-4.1v-31.9C150.9,124.8,149.1,122.9,146.8,122.9z M92.9,127.1c0-0.6,0.5-1.2,1.2-1.2h52.6
							c0.7,0,1.2,0.5,1.2,1.2v29.4c0,0.7-0.5,1.2-1.2,1.2H94.1c-0.7,0-1.2-0.5-1.2-1.2c0,0,0,0,0,0V127.1z"/>
						<path id="XMLID_101_" class="st8" d="M142.9,125.9l-34.7,31.8h-14c-0.7,0-1.2-0.5-1.2-1.2v-5l41-25.6H142.9z"/>
					</g>
					<path id="XMLID_99_" class="st9" d="M125.6,161.1h-10.2c-1.2,0-1.1-1.7,0-1.7h10.2C126.6,159.4,126.7,161.1,125.6,161.1z"/>
				</g>
				<path id="XMLID_97_" class="st9" d="M150.9,164.3v1.7c0,0.1,0,0.2,0,0.2H90c0-0.1,0-0.2,0-0.2v-1.7H150.9z"/>
				<g id="XMLID_94_">
					<rect id="XMLID_96_" x="99.3" y="163.1" class="st4" width="7.7" height="1.2"/>
					<rect id="XMLID_95_" x="133.9" y="163.1" class="st4" width="7.7" height="1.2"/>
				</g>
				<rect id="XMLID_93_" x="99.3" y="130" class="st10" width="21.2" height="2.8"/>
				<rect id="XMLID_92_" x="123.3" y="130" class="st11" width="15.7" height="2.8"/>
				<rect id="XMLID_91_" x="99.3" y="134.6" class="st12" width="11.2" height="2.8"/>
				<rect id="XMLID_90_" x="117.9" y="134.6" class="st12" width="21.2" height="2.8"/>
				<rect id="XMLID_89_" x="99.3" y="139.1" class="st11" width="21.2" height="2.8"/>
				<rect id="XMLID_88_" x="121.7" y="139.1" class="st10" width="8.4" height="2.8"/>
				<rect id="XMLID_87_" x="99.3" y="143.7" class="st12" width="21.2" height="2.8"/>
				<rect id="XMLID_86_" x="99.3" y="148.3" class="st11" width="21.2" height="2.8"/>
			</g>
			<g id="XMLID_72_">
				<path id="XMLID_84_" class="st4" d="M136.7,55.2v17.3c0,0.4-0.3,0.7-0.7,0.7h-31c-0.4,0-0.7-0.3-0.7-0.7V55.2
					c0-0.4,0.3-0.7,0.7-0.7h31C136.3,54.5,136.7,54.8,136.7,55.2z"/>
				<path id="XMLID_83_" class="st8" d="M133.7,54.5l-20.5,18.8h-8.3c-0.4,0-0.7-0.3-0.7-0.7v-3l24.1-15.1H133.7z"/>
				<rect id="XMLID_82_" x="108" y="56.9" class="st10" width="12.5" height="1.7"/>
				<rect id="XMLID_81_" x="122.1" y="56.9" class="st11" width="9.3" height="1.7"/>
				<rect id="XMLID_80_" x="108" y="59.6" class="st12" width="6.6" height="1.7"/>
				<rect id="XMLID_79_" x="119" y="59.6" class="st12" width="12.5" height="1.7"/>
				<rect id="XMLID_78_" x="108" y="62.3" class="st11" width="4.2" height="1.7"/>
				<rect id="XMLID_77_" x="113.1" y="62.3" class="st11" width="4.2" height="1.7"/>
				<rect id="XMLID_76_" x="121.2" y="62.3" class="st10" width="4.9" height="1.7"/>
				<rect id="XMLID_75_" x="108" y="65" class="st12" width="12.5" height="1.7"/>
				<rect id="XMLID_74_" x="122" y="65" class="st10" width="5.6" height="1.7"/>
				<rect id="XMLID_73_" x="108" y="67.7" class="st11" width="12.5" height="1.7"/>
			</g>
			<g id="XMLID_46_">
				<g id="XMLID_61_">
					<path id="XMLID_71_" class="st4" d="M86.3,67.2v17.3c0,0.4-0.3,0.7-0.7,0.7h-31c-0.4,0-0.7-0.3-0.7-0.7V67.2
						c0-0.4,0.3-0.7,0.7-0.7h31C86,66.5,86.3,66.8,86.3,67.2z"/>
					<path id="XMLID_70_" class="st8" d="M83.3,66.5L62.9,85.2h-8.3c-0.4,0-0.7-0.3-0.7-0.7v-3L78,66.5H83.3z"/>
					<rect id="XMLID_69_" x="57.6" y="68.9" class="st10" width="12.5" height="1.7"/>
					<rect id="XMLID_68_" x="71.8" y="68.9" class="st11" width="9.3" height="1.7"/>
					<rect id="XMLID_67_" x="57.6" y="71.6" class="st12" width="6.6" height="1.7"/>
					<rect id="XMLID_66_" x="68.6" y="71.6" class="st12" width="12.5" height="1.7"/>
					<rect id="XMLID_65_" x="57.6" y="74.3" class="st11" width="12.5" height="1.7"/>
					<rect id="XMLID_64_" x="70.9" y="74.3" class="st10" width="4.9" height="1.7"/>
					<rect id="XMLID_63_" x="57.6" y="77" class="st12" width="12.5" height="1.7"/>
					<rect id="XMLID_62_" x="57.6" y="79.7" class="st11" width="12.5" height="1.7"/>
				</g>
				<g id="XMLID_47_">
					<path id="XMLID_60_" class="st4" d="M187,67.3v17.3c0,0.4-0.3,0.7-0.7,0.7h-31c-0.4,0-0.7-0.3-0.7-0.7V67.3
						c0-0.4,0.3-0.7,0.7-0.7h31C186.7,66.6,187,66.9,187,67.3z"/>
					<path id="XMLID_59_" class="st8" d="M184,66.6l-20.5,18.8h-8.3c-0.4,0-0.7-0.3-0.7-0.7v-3l24.1-15.1H184z"/>
					<rect id="XMLID_58_" x="158.3" y="69" class="st10" width="7.2" height="1.7"/>
					<rect id="XMLID_57_" x="166.7" y="69" class="st11" width="8.9" height="1.7"/>
					<rect id="XMLID_56_" x="158.3" y="71.7" class="st12" width="6.6" height="1.7"/>
					<rect id="XMLID_55_" x="169.3" y="71.7" class="st12" width="12.5" height="1.7"/>
					<rect id="XMLID_54_" x="158.3" y="74.4" class="st11" width="4.2" height="1.7"/>
					<rect id="XMLID_53_" x="158.3" y="79.8" class="st12" width="4.2" height="1.7"/>
					<rect id="XMLID_52_" x="163.5" y="74.4" class="st11" width="4.2" height="1.7"/>
					<rect id="XMLID_51_" x="171.6" y="74.4" class="st10" width="4.9" height="1.7"/>
					<rect id="XMLID_50_" x="158.3" y="77.1" class="st12" width="12.5" height="1.7"/>
					<rect id="XMLID_49_" x="172.3" y="77.1" class="st10" width="8.8" height="1.7"/>
					<rect id="XMLID_48_" x="167.1" y="79.8" class="st11" width="15.5" height="1.7"/>
				</g>
			</g>
			<g id="XMLID_31_">
				<g id="XMLID_43_">
					<polygon id="XMLID_45_" class="st13" points="103.5,99.5 114.6,115.1 115.6,127.2 120.5,127.2 120.5,99.5 					"/>
					<polygon id="XMLID_44_" class="st14" points="137.4,99.5 126.3,115.1 125.3,127.2 120.5,127.2 120.5,99.5 					"/>
				</g>
				<rect id="XMLID_42_" x="117.9" y="73.3" class="st15" width="5.2" height="13.9"/>
				<polygon id="XMLID_41_" class="st15" points="120.5,94.3 114.2,86.5 126.7,86.5 				"/>
				<g id="XMLID_32_">
					<g id="XMLID_221_">
						<g id="XMLID_226_">
							<rect id="XMLID_229_" x="140.7" y="73.3" class="st15" width="5.2" height="13.9"/>
							<rect id="XMLID_228_" x="140.7" y="73.3" class="st15" width="13.9" height="5.2"/>
							<polygon id="XMLID_227_" class="st15" points="143.2,94.3 137,86.5 149.5,86.5 							"/>
						</g>
						<g id="XMLID_222_">
							<rect id="XMLID_225_" x="95.1" y="73.3" class="st15" width="5.2" height="13.9"/>
							<rect id="XMLID_224_" x="86.3" y="73.3" class="st15" width="13.9" height="5.2"/>
							<polygon id="XMLID_223_" class="st15" points="97.7,94.3 103.9,86.5 91.4,86.5 							"/>
						</g>
					</g>
				</g>
			</g>
		</g>
	</g>
	<g id="XMLID_251_" class="st1">
		<path id="XMLID_257_" class="st5" d="M213.2,107.1v18.8h-17.3c-3,0-5.4-2.4-5.4-5.4v-8c0-3,2.4-5.4,5.4-5.4H213.2z"/>
		<path id="XMLID_256_" class="st5" d="M213.2,128v18.8h-17.3c-3,0-5.4-2.4-5.4-5.4v-8c0-3,2.4-5.4,5.4-5.4H213.2z"/>
		<path id="XMLID_255_" class="st5" d="M213.2,148.9v18.8h-17.3c-3,0-5.4-2.4-5.4-5.4v-8c0-3,2.4-5.4,5.4-5.4H213.2z"/>
		<path id="XMLID_254_" class="st6" d="M235.9,112.5v8c0,3-2.4,5.4-5.4,5.4h-17.3v-18.8h17.3C233.5,107.1,235.9,109.5,235.9,112.5z"
			/>
		<path id="XMLID_253_" class="st6" d="M235.9,133.4v8c0,3-2.4,5.4-5.4,5.4h-17.3V128h17.3C233.5,128,235.9,130.4,235.9,133.4z"/>
		<path id="XMLID_252_" class="st6" d="M235.9,154.3v8c0,3-2.4,5.4-5.4,5.4h-17.3v-18.8h17.3C233.5,148.9,235.9,151.3,235.9,154.3z"
			/>
	</g>
</g>
<g id="Layer_2">
	<path id="XMLID_249_" class="st16" d="M163.7,25.4c-2.7-18.4,25.1-16.7,21.7-1.3c-0.9,3.8-2.9,8.7-2.9,8.7l0.4,4.7
		c-0.8,3.3-2.3,10.3-3.9,11.5c-1.6,1.2-8.8,8.9-8.8,8.9l1.9-19.1l-0.4-2.7c0,0-1.7,0.9-3.2,1.2c-1.5,0.3-3.2,0.6-3.8-0.8
		c-0.4-4.1-0.6-4.6-1.1-6.9C161.5,28.8,161.2,27.5,163.7,25.4z"/>
	<rect id="XMLID_248_" x="187.2" y="148.3" class="st10" width="7.9" height="7.2"/>
	<g id="XMLID_246_">
		<path id="XMLID_247_" class="st4" d="M185.1,156.6L185.1,156.6H181c-1.7,0-3.1,1.4-3.1,3.1c0,0.6,0.5,1.1,1.1,1.1h14.6
			c0.8,0,1.5-0.7,1.5-1.5v-5.1h-3.9c-0.8,0-1.5-0.4-1.9-1.1c-0.3-0.6-1-0.9-1.7-0.9c-0.9,0-1.6,0.6-1.9,1.4L185.1,156.6z"/>
	</g>
	<rect id="XMLID_245_" x="163.7" y="148.3" class="st10" width="7.9" height="7.2"/>
	<path id="XMLID_244_" class="st17" d="M125.6,155.9c0,2.2-1.8,4-4,4H30.2c-2.2,0-4-1.8-4-4v-145c0-2.2,1.8-4,4-4h91.4
		c2.2,0,4,1.8,4,4V155.9z"/>
	<path id="XMLID_243_" class="st6" d="M153.9,155.9c0,2.2-1.8,4-4,4H58.5c-2.2,0-4-1.8-4-4v-145c0-2.2,1.8-4,4-4h91.4
		c2.2,0,4,1.8,4,4V155.9z"/>
	<g id="XMLID_202_">
		<rect id="XMLID_204_" x="109.6" y="18.4" class="st9" width="37.3" height="11.2"/>
		<rect id="XMLID_203_" x="109.6" y="18.4" class="st14" width="11.2" height="11.2"/>
	</g>
	<g id="XMLID_201_">
		<rect id="XMLID_208_" x="64.7" y="18.4" class="st9" width="37.3" height="11.2"/>
		<rect id="XMLID_205_" x="64.7" y="18.4" class="st14" width="11.2" height="11.2"/>
	</g>
	<g id="XMLID_209_">
		<rect id="XMLID_214_" x="64.7" y="37.1" class="st9" width="37.3" height="11.2"/>
		<rect id="XMLID_210_" x="64.7" y="37.1" class="st14" width="11.2" height="11.2"/>
	</g>
	<g id="XMLID_258_">
		<rect id="XMLID_283_" x="108.9" y="37.1" class="st9" width="37.3" height="11.2"/>
		<rect id="XMLID_259_" x="108.9" y="37.1" class="st14" width="11.2" height="11.2"/>
	</g>
	<g id="XMLID_235_">
		<rect id="XMLID_239_" x="109.6" y="103.1" class="st9" width="37.3" height="11.2"/>
		<rect id="XMLID_236_" x="109.6" y="103.1" class="st14" width="11.2" height="11.2"/>
	</g>
	<g id="XMLID_144_">
		<rect id="XMLID_234_" x="64.7" y="103.1" class="st9" width="37.3" height="11.2"/>
		<rect id="XMLID_231_" x="64.7" y="103.1" class="st14" width="11.2" height="11.2"/>
	</g>
	<g id="XMLID_218_">
		<rect id="XMLID_240_" x="109.6" y="84.1" class="st9" width="37.3" height="11.2"/>
		<rect id="XMLID_219_" x="109.6" y="84.1" class="st14" width="11.2" height="11.2"/>
	</g>
	<g id="XMLID_9_">
		<rect id="XMLID_217_" x="64.7" y="84.1" class="st9" width="37.3" height="11.2"/>
		<rect id="XMLID_11_" x="64.7" y="84.1" class="st14" width="11.2" height="11.2"/>
	</g>
	<g id="XMLID_7_">
		<rect id="XMLID_13_" x="64.7" y="121.8" class="st9" width="37.3" height="11.2"/>
		<rect id="XMLID_8_" x="64.7" y="121.8" class="st14" width="11.2" height="11.2"/>
	</g>
	<g id="XMLID_2_">
		<rect id="XMLID_6_" x="108.9" y="121.8" class="st9" width="37.3" height="11.2"/>
		<rect id="XMLID_3_" x="108.9" y="121.8" class="st14" width="11.2" height="11.2"/>
	</g>
	<g id="XMLID_178_">
		<g id="XMLID_190_">
			<rect id="XMLID_200_" x="64.7" y="55.3" class="st4" width="6.3" height="6.3"/>
			<rect id="XMLID_199_" x="72.8" y="55.3" class="st10" width="6.3" height="6.3"/>
			<rect id="XMLID_198_" x="80.8" y="55.3" class="st4" width="6.3" height="6.3"/>
			<rect id="XMLID_197_" x="88.9" y="55.3" class="st4" width="6.3" height="6.3"/>
			<rect id="XMLID_196_" x="97" y="55.3" class="st4" width="6.3" height="6.3"/>
			<rect id="XMLID_195_" x="105.1" y="55.3" class="st4" width="6.3" height="6.3"/>
			<rect id="XMLID_194_" x="113.2" y="55.3" class="st4" width="6.3" height="6.3"/>
			<rect id="XMLID_193_" x="121.3" y="55.3" class="st4" width="6.3" height="6.3"/>
			<rect id="XMLID_192_" x="129.3" y="55.3" class="st4" width="6.3" height="6.3"/>
			<rect id="XMLID_191_" x="137.4" y="55.3" class="st4" width="6.3" height="6.3"/>
		</g>
		<g id="XMLID_179_">
			<rect id="XMLID_189_" x="64.7" y="63" class="st4" width="6.3" height="6.3"/>
			<rect id="XMLID_188_" x="72.8" y="63" class="st4" width="6.3" height="6.3"/>
			<rect id="XMLID_187_" x="80.8" y="63" class="st4" width="6.3" height="6.3"/>
			<rect id="XMLID_186_" x="88.9" y="63" class="st4" width="6.3" height="6.3"/>
			<rect id="XMLID_185_" x="97" y="63" class="st4" width="6.3" height="6.3"/>
			<rect id="XMLID_184_" x="105.1" y="63" class="st4" width="6.3" height="6.3"/>
			<rect id="XMLID_183_" x="113.2" y="63" class="st4" width="6.3" height="6.3"/>
			<rect id="XMLID_182_" x="121.3" y="63" class="st4" width="6.3" height="6.3"/>
			<rect id="XMLID_181_" x="129.3" y="63" class="st4" width="6.3" height="6.3"/>
			<rect id="XMLID_180_" x="137.4" y="63" class="st4" width="6.3" height="6.3"/>
		</g>
	</g>
	<path id="XMLID_177_" class="st18" d="M175.1,33c0,0,2,3.8-3,5.7l-0.4-2.7C171.6,36.1,172.8,35.2,175.1,33z"/>
	<path id="XMLID_176_" class="st19" d="M174.3,11.4c16.4-0.2,12.2,17.9,8.9,21.8c-3.8,0-4.3-3.3-5-4.8l-1.3-2.5l-0.7,3.9h-1.8
		c0,0,0.6-4.8-0.4-7c-1.3-2.5-5.7-3.9-5.7-3.9c0,0,0,0,0,0c-1.7,0-3.1-0.7-4.2-1.6c-2.7-2.2-4.1-5.9-4.1-5.9H174.3z"/>
	<path id="XMLID_175_" class="st20" d="M175.7,29.8c0,0,0.6-6.5,4.2-4.7c0,0,1.5,1.7-1,3.2c0,0,0.2,2.7-1.5,2.5L175.7,29.8z"/>
	<g id="XMLID_171_">
		<path id="XMLID_172_" class="st4" d="M161.6,156.6L161.6,156.6h-4.1c-1.7,0-3.1,1.4-3.1,3.1c0,0.6,0.5,1.1,1.1,1.1h14.6
			c0.8,0,1.5-0.7,1.5-1.5v-5.1h-3.9c-0.8,0-1.5-0.4-1.9-1.1c-0.3-0.6-1-0.9-1.7-0.9c-0.9,0-1.6,0.6-1.9,1.4L161.6,156.6z"/>
	</g>
	<rect id="XMLID_170_" x="128.9" y="84.6" class="st21" width="40.1" height="2.7"/>
	<path id="XMLID_169_" class="st22" d="M172.1,38.8l2.5,3.9l8.4-5.1l10.9,5.5L190,87.4L171.6,90l-6.9-3.2l-2.8-25l-9.6-2.5
		C154.5,42.8,162.4,41.1,172.1,38.8z"/>
	<path id="XMLID_168_" class="st20" d="M137.9,64.3l-4.7-1.4c0,0-0.5-3.2-4.8-3.9l-5.2-0.4c0,0-0.7,1.2,0.9,1.8c1,0.4,4,0.9,4.1,0.9
		c0,0,0.4,3.4,3,4.8l6.4,2.7L137.9,64.3z"/>
	<path id="XMLID_167_" class="st20" d="M129.9,62.3c-1.4-0.3-2.4,0-3.4-0.2c-4.1-1.1-4.5,0.8-3,1.4c0.6,0.2,2.3,0.6,2.3,0.6l2.1,1.1
		c0,0,1.1,2.9,5.3,1.9L129.9,62.3z"/>
	<path id="XMLID_166_" class="st22" d="M152.4,59.3l-1.1,4.4l-15.8-1.5l-1.6,6.2l17.5,4.6c4.3,1.4,7.3,0.5,8-2.9l3-12.3L152.4,59.3z
		"/>
	<polygon id="XMLID_174_" class="st21" points="137.9,66.3 148.1,84.6 151.2,84.6 141,66.3 	"/>
	<g id="XMLID_156_">
		<g id="XMLID_164_">
			<path id="XMLID_165_" class="st23" d="M128.1,108.9h-38c-8.6,0-15.6-7-15.6-15.6V58.5h2.9v34.8c0,7,5.7,12.8,12.8,12.8h38
				c7,0,12.8-5.7,12.8-12.8v-6h2.9v6C143.7,101.9,136.7,108.9,128.1,108.9z"/>
		</g>
	</g>
	<path id="XMLID_150_" class="st24" d="M176.7,87.4v13.5c0,0,0,0,0,0l-2.9,50.6h-11.9c-1.1-13.2,2.9-57.2,3.5-64.1H176.7z"/>
	<path id="XMLID_148_" class="st4" d="M197.5,151.4h-12.7c0,0-5.2-37-8.2-50.6c0,0,0,0,0,0c-0.4-2-0.8-3.5-1.2-4.3v-9.2H190
		C190.7,92,196.9,134.6,197.5,151.4z"/>
	<path id="XMLID_147_" class="st20" d="M169.7,81.3c0,0-3.2-1.8-6.1,1.4l-3,1.2c-1.7,0.7-2.8,3,1,2.3l4.2-0.8l5.3-1L169.7,81.3z"/>
	<path id="XMLID_146_" class="st20" d="M171.6,86.8c-6.9,3.2-7.7,4.1-14.4,1.6c-1.9-0.7-1-1.7,0.7-1.6l4.5,0.2l4.2-3.2h4.5
		L171.6,86.8z"/>
	<path id="XMLID_145_" class="st15" d="M193.1,42.7c-9.8,3.2-6.6,14.8-4.3,28.1l-19.2,10.5l1.9,5.5c22.5-8.8,27.6-8.2,28.3-13.6
		C204.2,43.8,193.1,42.7,193.1,42.7z"/>
	<g id="XMLID_143_">
		<polygon id="XMLID_173_" class="st25" points="128.9,84.6 148.1,84.6 137.9,66.3 118.8,66.3 		"/>
	</g>
</g>
</svg>
