<?xml version="1.0" encoding="utf-8"?>
<!-- Generator: Adobe Illustrator 19.0.0, SVG Export Plug-In . SVG Version: 6.00 Build 0)  -->
<svg version="1.1" id="Layer_1" xmlns="http://www.w3.org/2000/svg" xmlns:xlink="http://www.w3.org/1999/xlink" x="0px" y="0px"
	 viewBox="0 0 234.7 171.7" style="enable-background:new 0 0 234.7 171.7;" xml:space="preserve">
<style type="text/css">
	.st0{opacity:0.35;fill:#FF3A55;}
	.st1{fill:#FFFFFF;}
	.st2{fill:#232323;}
	.st3{fill:#969696;}
	.st4{fill:#65617D;}
	.st5{fill:#515151;}
	.st6{fill:#353535;}
	.st7{fill:#908F92;}
	.st8{fill:#97E3F7;}
	.st9{fill:#FF791F;}
	.st10{fill:#D2CE07;}
	.st11{fill:#D4DFEC;}
	.st12{fill:#A4BFD8;}
	.st13{fill:#FF3A55;}
</style>
<path id="XMLID_29_" class="st0" d="M23.8,70.4c0,0-48.7,65.1,7.8,80.5s80.1-9.5,98.7-14.6c34.8-9.4,52.9,10.7,83.8-15.2
	s7.3-62,7.3-62s-6-26.2-70.4-40.5c-39.6-8.8-56.5,1.2-63.4,13.5C80,45.5,66,54,50.7,55.8C40.5,57.1,30.2,61,23.8,70.4z"/>
<path id="XMLID_27_" class="st1" d="M162.3,132"/>
<g id="XMLID_30_">
	<g id="XMLID_28_">
		<rect id="XMLID_133_" x="103.8" y="18.1" class="st2" width="32.1" height="33.3"/>
		<g id="XMLID_126_">
			<path id="XMLID_132_" class="st3" d="M119.9,4.4v18.8h-17.3c-3,0-5.4-2.4-5.4-5.4v-8c0-3,2.4-5.4,5.4-5.4H119.9z"/>
			<path id="XMLID_131_" class="st3" d="M119.9,25.3v18.8h-17.3c-3,0-5.4-2.4-5.4-5.4v-8c0-3,2.4-5.4,5.4-5.4H119.9z"/>
			<path id="XMLID_130_" class="st3" d="M119.9,46.2V65h-17.3c-3,0-5.4-2.4-5.4-5.4v-8c0-3,2.4-5.4,5.4-5.4H119.9z"/>
			<path id="XMLID_129_" class="st4" d="M142.6,9.8v8c0,3-2.4,5.4-5.4,5.4h-17.3V4.4h17.3C140.2,4.4,142.6,6.8,142.6,9.8z"/>
			<path id="XMLID_128_" class="st4" d="M142.6,30.7v8c0,3-2.4,5.4-5.4,5.4h-17.3V25.3h17.3C140.2,25.3,142.6,27.7,142.6,30.7z"/>
			<path id="XMLID_127_" class="st4" d="M142.6,51.6v8c0,3-2.4,5.4-5.4,5.4h-17.3V46.2h17.3C140.2,46.2,142.6,48.6,142.6,51.6z"/>
		</g>
	</g>
	<g id="XMLID_107_">
		<g id="XMLID_108_">
			<rect id="XMLID_116_" x="168.8" y="52.2" class="st2" width="32.1" height="33.3"/>
			<g id="XMLID_109_">
				<path id="XMLID_115_" class="st3" d="M184.8,38.6v18.8h-17.3c-3,0-5.4-2.4-5.4-5.4v-8c0-3,2.4-5.4,5.4-5.4H184.8z"/>
				<path id="XMLID_114_" class="st3" d="M184.8,59.5v18.8h-17.3c-3,0-5.4-2.4-5.4-5.4v-8c0-3,2.4-5.4,5.4-5.4H184.8z"/>
				<path id="XMLID_113_" class="st3" d="M184.8,80.4v18.8h-17.3c-3,0-5.4-2.4-5.4-5.4v-8c0-3,2.4-5.4,5.4-5.4H184.8z"/>
				<path id="XMLID_112_" class="st4" d="M207.6,44v8c0,3-2.4,5.4-5.4,5.4h-17.3V38.6h17.3C205.1,38.6,207.6,41,207.6,44z"/>
				<path id="XMLID_111_" class="st4" d="M207.6,64.9v8c0,3-2.4,5.4-5.4,5.4h-17.3V59.5h17.3C205.1,59.5,207.6,61.9,207.6,64.9z"/>
				<path id="XMLID_110_" class="st4" d="M207.6,85.8v8c0,3-2.4,5.4-5.4,5.4h-17.3V80.4h17.3C205.1,80.4,207.6,82.8,207.6,85.8z"/>
			</g>
		</g>
		<g id="XMLID_117_">
			<rect id="XMLID_125_" x="41.6" y="42.8" class="st2" width="32.1" height="33.3"/>
			<g id="XMLID_118_">
				<path id="XMLID_124_" class="st3" d="M57.6,29.2V48H40.3c-3,0-5.4-2.4-5.4-5.4v-8c0-3,2.4-5.4,5.4-5.4H57.6z"/>
				<path id="XMLID_123_" class="st3" d="M57.6,50.1v18.8H40.3c-3,0-5.4-2.4-5.4-5.4v-8c0-3,2.4-5.4,5.4-5.4H57.6z"/>
				<path id="XMLID_122_" class="st3" d="M57.6,71v18.8H40.3c-3,0-5.4-2.4-5.4-5.4v-8c0-3,2.4-5.4,5.4-5.4H57.6z"/>
				<path id="XMLID_121_" class="st4" d="M80.4,34.6v8c0,3-2.4,5.4-5.4,5.4H57.6V29.2h17.3C77.9,29.2,80.4,31.6,80.4,34.6z"/>
				<path id="XMLID_120_" class="st4" d="M80.4,55.5v8c0,3-2.4,5.4-5.4,5.4H57.6V50.1h17.3C77.9,50.1,80.4,52.5,80.4,55.5z"/>
				<path id="XMLID_119_" class="st4" d="M80.4,76.4v8c0,3-2.4,5.4-5.4,5.4H57.6V71h17.3C77.9,71,80.4,73.4,80.4,76.4z"/>
			</g>
		</g>
	</g>
	<g id="XMLID_85_">
		<g id="XMLID_98_">
			<path id="XMLID_106_" class="st5" d="M150.9,166.2c-0.1,2.2-1.9,3.9-4.1,3.9H94.1c-2.2,0-4-1.7-4.1-3.9H150.9z"/>
			<g id="XMLID_100_">
				<path id="XMLID_105_" class="st2" d="M148,127.1v29.4c0,0.7-0.5,1.2-1.2,1.2H94.1c-0.7,0-1.2-0.5-1.2-1.2v-29.4
					c0-0.6,0.5-1.2,1.2-1.2h52.6C147.4,125.9,148,126.4,148,127.1z"/>
				<path id="XMLID_102_" class="st5" d="M146.8,122.9H94.1c-2.3,0-4.1,1.9-4.1,4.1v31.9c0,2.3,1.9,4.1,4.1,4.1h52.6
					c2.3,0,4.1-1.9,4.1-4.1v-31.9C150.9,124.8,149.1,122.9,146.8,122.9z M92.9,127.1c0-0.6,0.5-1.2,1.2-1.2h52.6
					c0.7,0,1.2,0.5,1.2,1.2v29.4c0,0.7-0.5,1.2-1.2,1.2H94.1c-0.7,0-1.2-0.5-1.2-1.2c0,0,0,0,0,0V127.1z"/>
				<path id="XMLID_101_" class="st6" d="M142.9,125.9l-34.7,31.8h-14c-0.7,0-1.2-0.5-1.2-1.2v-5l41-25.6H142.9z"/>
			</g>
			<path id="XMLID_99_" class="st7" d="M125.6,161.1h-10.2c-1.2,0-1.1-1.7,0-1.7h10.2C126.6,159.4,126.7,161.1,125.6,161.1z"/>
		</g>
		<path id="XMLID_97_" class="st7" d="M150.9,164.3v1.7c0,0.1,0,0.2,0,0.2H90c0-0.1,0-0.2,0-0.2v-1.7H150.9z"/>
		<g id="XMLID_94_">
			<rect id="XMLID_96_" x="99.3" y="163.1" class="st2" width="7.7" height="1.2"/>
			<rect id="XMLID_95_" x="133.9" y="163.1" class="st2" width="7.7" height="1.2"/>
		</g>
		<rect id="XMLID_93_" x="99.3" y="130" class="st8" width="21.2" height="2.8"/>
		<rect id="XMLID_92_" x="123.3" y="130" class="st9" width="15.7" height="2.8"/>
		<rect id="XMLID_91_" x="99.3" y="134.6" class="st10" width="11.2" height="2.8"/>
		<rect id="XMLID_90_" x="117.9" y="134.6" class="st10" width="21.2" height="2.8"/>
		<rect id="XMLID_89_" x="99.3" y="139.1" class="st9" width="21.2" height="2.8"/>
		<rect id="XMLID_88_" x="121.7" y="139.1" class="st8" width="8.4" height="2.8"/>
		<rect id="XMLID_87_" x="99.3" y="143.7" class="st10" width="21.2" height="2.8"/>
		<rect id="XMLID_86_" x="99.3" y="148.3" class="st9" width="21.2" height="2.8"/>
	</g>
	<g id="XMLID_72_">
		<path id="XMLID_84_" class="st2" d="M136.7,55.2v17.3c0,0.4-0.3,0.7-0.7,0.7h-31c-0.4,0-0.7-0.3-0.7-0.7V55.2
			c0-0.4,0.3-0.7,0.7-0.7h31C136.3,54.5,136.7,54.8,136.7,55.2z"/>
		<path id="XMLID_83_" class="st6" d="M133.7,54.5l-20.5,18.8h-8.3c-0.4,0-0.7-0.3-0.7-0.7v-3l24.1-15.1H133.7z"/>
		<rect id="XMLID_82_" x="108" y="56.9" class="st8" width="12.5" height="1.7"/>
		<rect id="XMLID_81_" x="122.1" y="56.9" class="st9" width="9.3" height="1.7"/>
		<rect id="XMLID_80_" x="108" y="59.6" class="st10" width="6.6" height="1.7"/>
		<rect id="XMLID_79_" x="119" y="59.6" class="st10" width="12.5" height="1.7"/>
		<rect id="XMLID_78_" x="108" y="62.3" class="st9" width="4.2" height="1.7"/>
		<rect id="XMLID_77_" x="113.1" y="62.3" class="st9" width="4.2" height="1.7"/>
		<rect id="XMLID_76_" x="121.2" y="62.3" class="st8" width="4.9" height="1.7"/>
		<rect id="XMLID_75_" x="108" y="65" class="st10" width="12.5" height="1.7"/>
		<rect id="XMLID_74_" x="122" y="65" class="st8" width="5.6" height="1.7"/>
		<rect id="XMLID_73_" x="108" y="67.7" class="st9" width="12.5" height="1.7"/>
	</g>
	<g id="XMLID_46_">
		<g id="XMLID_61_">
			<path id="XMLID_71_" class="st2" d="M86.3,67.2v17.3c0,0.4-0.3,0.7-0.7,0.7h-31c-0.4,0-0.7-0.3-0.7-0.7V67.2
				c0-0.4,0.3-0.7,0.7-0.7h31C86,66.5,86.3,66.8,86.3,67.2z"/>
			<path id="XMLID_70_" class="st6" d="M83.3,66.5L62.9,85.2h-8.3c-0.4,0-0.7-0.3-0.7-0.7v-3L78,66.5H83.3z"/>
			<rect id="XMLID_69_" x="57.6" y="68.9" class="st8" width="12.5" height="1.7"/>
			<rect id="XMLID_68_" x="71.8" y="68.9" class="st9" width="9.3" height="1.7"/>
			<rect id="XMLID_67_" x="57.6" y="71.6" class="st10" width="6.6" height="1.7"/>
			<rect id="XMLID_66_" x="68.6" y="71.6" class="st10" width="12.5" height="1.7"/>
			<rect id="XMLID_65_" x="57.6" y="74.3" class="st9" width="12.5" height="1.7"/>
			<rect id="XMLID_64_" x="70.9" y="74.3" class="st8" width="4.9" height="1.7"/>
			<rect id="XMLID_63_" x="57.6" y="77" class="st10" width="12.5" height="1.7"/>
			<rect id="XMLID_62_" x="57.6" y="79.7" class="st9" width="12.5" height="1.7"/>
		</g>
		<g id="XMLID_47_">
			<path id="XMLID_60_" class="st2" d="M187,67.3v17.3c0,0.4-0.3,0.7-0.7,0.7h-31c-0.4,0-0.7-0.3-0.7-0.7V67.3
				c0-0.4,0.3-0.7,0.7-0.7h31C186.7,66.6,187,66.9,187,67.3z"/>
			<path id="XMLID_59_" class="st6" d="M184,66.6l-20.5,18.8h-8.3c-0.4,0-0.7-0.3-0.7-0.7v-3l24.1-15.1H184z"/>
			<rect id="XMLID_58_" x="158.3" y="69" class="st8" width="7.2" height="1.7"/>
			<rect id="XMLID_57_" x="166.7" y="69" class="st9" width="8.9" height="1.7"/>
			<rect id="XMLID_56_" x="158.3" y="71.7" class="st10" width="6.6" height="1.7"/>
			<rect id="XMLID_55_" x="169.3" y="71.7" class="st10" width="12.5" height="1.7"/>
			<rect id="XMLID_54_" x="158.3" y="74.4" class="st9" width="4.2" height="1.7"/>
			<rect id="XMLID_53_" x="158.3" y="79.8" class="st10" width="4.2" height="1.7"/>
			<rect id="XMLID_52_" x="163.5" y="74.4" class="st9" width="4.2" height="1.7"/>
			<rect id="XMLID_51_" x="171.6" y="74.4" class="st8" width="4.9" height="1.7"/>
			<rect id="XMLID_50_" x="158.3" y="77.1" class="st10" width="12.5" height="1.7"/>
			<rect id="XMLID_49_" x="172.3" y="77.1" class="st8" width="8.8" height="1.7"/>
			<rect id="XMLID_48_" x="167.1" y="79.8" class="st9" width="15.5" height="1.7"/>
		</g>
	</g>
	<g id="XMLID_31_">
		<g id="XMLID_43_">
			<polygon id="XMLID_45_" class="st11" points="103.5,99.5 114.6,115.1 115.6,127.2 120.5,127.2 120.5,99.5 			"/>
			<polygon id="XMLID_44_" class="st12" points="137.4,99.5 126.3,115.1 125.3,127.2 120.5,127.2 120.5,99.5 			"/>
		</g>
		<rect id="XMLID_42_" x="117.9" y="73.3" class="st13" width="5.2" height="13.9"/>
		<polygon id="XMLID_41_" class="st13" points="120.5,94.3 114.2,86.5 126.7,86.5 		"/>
		<g id="XMLID_32_">
			<g id="XMLID_221_">
				<g id="XMLID_226_">
					<rect id="XMLID_229_" x="140.7" y="73.3" class="st13" width="5.2" height="13.9"/>
					<rect id="XMLID_228_" x="140.7" y="73.3" class="st13" width="13.9" height="5.2"/>
					<polygon id="XMLID_227_" class="st13" points="143.2,94.3 137,86.5 149.5,86.5 					"/>
				</g>
				<g id="XMLID_222_">
					<rect id="XMLID_225_" x="95.1" y="73.3" class="st13" width="5.2" height="13.9"/>
					<rect id="XMLID_224_" x="86.3" y="73.3" class="st13" width="13.9" height="5.2"/>
					<polygon id="XMLID_223_" class="st13" points="97.7,94.3 103.9,86.5 91.4,86.5 					"/>
				</g>
			</g>
		</g>
	</g>
</g>
</svg>
