<?xml version="1.0" encoding="utf-8"?>
<!-- Generator: Adobe Illustrator 19.0.0, SVG Export Plug-In . SVG Version: 6.00 Build 0)  -->
<svg version="1.1" id="Layer_1" xmlns="http://www.w3.org/2000/svg" xmlns:xlink="http://www.w3.org/1999/xlink" x="0px" y="0px"
	 viewBox="0 0 141 37" style="enable-background:new 0 0 141 37;" xml:space="preserve">
<style type="text/css">
	.st0{fill:#ED0020;}
</style>
<g id="XMLID_1_">
	<path id="XMLID_16_" d="M14,31.6H4.9V4.9h9.2c2.6,0,4.8,0.5,6.7,1.6c1.9,1.1,3.3,2.6,4.3,4.6c1,2,1.5,4.4,1.5,7.2
		c0,2.8-0.5,5.2-1.5,7.2c-1,2-2.5,3.5-4.4,4.6S16.6,31.6,14,31.6z M13.8,9.4h-3.7v17.8h3.7c2.6,0,4.5-0.7,5.8-2.2
		c1.3-1.5,2-3.7,2-6.7c0-3-0.7-5.3-2-6.7S16.4,9.4,13.8,9.4z"/>
	<path id="XMLID_19_" class="st0" d="M33.3,9.9c-0.8,0-1.5-0.3-2.1-0.8S30.4,8,30.4,7.2c0-0.7,0.3-1.3,0.8-1.9
		c0.6-0.5,1.2-0.8,2.1-0.8s1.5,0.3,2,0.8c0.5,0.5,0.8,1.2,0.8,1.9c0,0.7-0.3,1.4-0.8,1.9C34.8,9.6,34.1,9.9,33.3,9.9z M35.8,11.6v20
		h-5.1v-20H35.8z"/>
	<path id="XMLID_22_" d="M49.5,31.6h-9.1V4.9h9.2c2.6,0,4.8,0.5,6.7,1.6c1.9,1.1,3.3,2.6,4.3,4.6c1,2,1.5,4.4,1.5,7.2
		c0,2.8-0.5,5.2-1.5,7.2c-1,2-2.5,3.5-4.4,4.6S52.2,31.6,49.5,31.6z M49.3,9.4h-3.7v17.8h3.7c2.6,0,4.5-0.7,5.8-2.2
		c1.3-1.5,2-3.7,2-6.7c0-3-0.7-5.3-2-6.7S51.9,9.4,49.3,9.4z"/>
	<path id="XMLID_25_" d="M80.3,12.5c-0.1-1.1-0.6-2-1.3-2.6s-1.9-1-3.3-1c-1.4,0-2.5,0.3-3.3,0.9c-0.9,0.6-1.3,1.3-1.3,2.3
		c0,0.9,0.5,1.6,1.4,2.2c0.9,0.5,2.1,1,3.7,1.6l1.4,0.4C80,17,82,18,83.3,19.2c1.4,1.2,2,2.9,2,4.9c0,1.6-0.4,3-1.2,4.2
		c-0.8,1.2-2,2.1-3.4,2.7c-1.5,0.6-3.2,1-5.2,1c-1.8,0-3.5-0.3-5-0.9c-1.5-0.6-2.8-1.6-3.7-2.8c-0.9-1.3-1.4-2.8-1.5-4.7h5
		c0.1,1.4,0.6,2.4,1.6,3.1s2.2,1,3.6,1c1.5,0,2.7-0.3,3.6-1c0.8-0.7,1.2-1.5,1.2-2.4c0-0.9-0.4-1.7-1.3-2.3
		c-0.8-0.6-2.2-1.2-4.2-1.9l-1.4-0.4c-2.2-0.7-4-1.6-5.3-2.8c-1.4-1.2-2.1-2.8-2.1-4.7c0-1.5,0.4-2.8,1.3-3.9c0.8-1.1,2-2,3.4-2.6
		c1.5-0.6,3.1-0.9,4.9-0.9c1.9,0,3.5,0.3,4.9,1c1.4,0.7,2.5,1.6,3.3,2.8c0.8,1.2,1.2,2.6,1.3,4.2H80.3z"/>
	<path id="XMLID_27_" d="M93,4.9l6.8,11.7h0.3l6.8-11.7h5.6l-10,16.3v10.4h-5.2V21.2l-10-16.3H93z"/>
	<path id="XMLID_29_" d="M128,12.5c-0.1-1.1-0.6-2-1.3-2.6c-0.8-0.6-1.9-1-3.3-1c-1.4,0-2.5,0.3-3.3,0.9c-0.9,0.6-1.3,1.3-1.3,2.3
		c0,0.9,0.5,1.6,1.4,2.2c0.9,0.5,2.1,1,3.7,1.6l1.4,0.4c2.5,0.8,4.4,1.8,5.8,3.1c1.4,1.2,2,2.9,2,4.9c0,1.6-0.4,3-1.2,4.2
		c-0.8,1.2-2,2.1-3.4,2.7c-1.5,0.6-3.2,1-5.2,1c-1.8,0-3.5-0.3-5-0.9c-1.5-0.6-2.8-1.6-3.7-2.8s-1.4-2.8-1.5-4.7h5
		c0.1,1.4,0.6,2.4,1.6,3.1c1,0.7,2.2,1,3.6,1c1.5,0,2.7-0.3,3.6-1s1.2-1.5,1.2-2.4c0-0.9-0.4-1.7-1.3-2.3c-0.8-0.6-2.2-1.2-4.2-1.9
		l-1.4-0.4c-2.2-0.7-4-1.6-5.3-2.8c-1.4-1.2-2.1-2.8-2.1-4.7c0-1.5,0.4-2.8,1.3-3.9c0.8-1.1,2-2,3.4-2.6c1.5-0.6,3.1-0.9,4.9-0.9
		c1.9,0,3.5,0.3,4.9,1s2.5,1.6,3.3,2.8s1.2,2.6,1.3,4.2H128z"/>
</g>
</svg>
